HIERARCHY
ROOT Hips
{
  OFFSET -23.2767 103.177 16.4624
  CHANNELS 6 Xposition Yposition Zposition Zrotation Xrotation Yrotation
  JOINT ToSpine
  {
    OFFSET -2.69724 7.43032 -0.144315
    CHANNELS 3 Zrotation Xrotation Yrotation
    JOINT Spine
    {
      OFFSET -0.0310711 10.7595 1.96963
      CHANNELS 3 Zrotation Xrotation Yrotation
      JOINT Spine1
      {
        OFFSET 19.9056 3.91189 0.764692
        CHANNELS 3 Zrotation Xrotation Yrotation
        JOINT Neck
        {
          OFFSET 25.9749 7.03908 -0.130764
          CHANNELS 3 Zrotation Xrotation Yrotation
          JOINT Head
          {
            OFFSET 9.52751 0.295786 -0.907742
            CHANNELS 3 Zrotation Xrotation Yrotation
            End Site
            {
              OFFSET 16.4037 0.713936 2.7358
            }
          }
        }
        JOINT LeftShoulder
        {
          OFFSET 17.7449 4.33886 11.7777
          CHANNELS 3 Zrotation Xrotation Yrotation
          JOINT LeftArm
          {
            OFFSET 0.911315 1.27913 9.80584
            CHANNELS 3 Zrotation Xrotation Yrotation
            JOINT LeftForeArm
            {
              OFFSET 28.6126 1.18197 -3.53199
              CHANNELS 3 Zrotation Xrotation Yrotation
              JOINT LeftHand
              {
                OFFSET 27.5088 0.0218783 0.327423
                CHANNELS 3 Zrotation Xrotation Yrotation
                End Site
                {
                  OFFSET 18.6038 -0.000155887 0.382096
                }
              }
            }
          }
        }
        JOINT RightShoulder
        {
          OFFSET 17.1009 2.89543 -12.2328
          CHANNELS 3 Zrotation Xrotation Yrotation
          JOINT RightArm
          {
            OFFSET 1.4228 0.178766 -10.211
            CHANNELS 3 Zrotation Xrotation Yrotation
            JOINT RightForeArm
            {
              OFFSET 28.733 1.87905 2.64907
              CHANNELS 3 Zrotation Xrotation Yrotation
              JOINT RightHand
              {
                OFFSET 27.4588 0.290562 -0.101845
                CHANNELS 3 Zrotation Xrotation Yrotation
                End Site
                {
                  OFFSET 17.8396 -0.255518 -0.000602873
                }
              }
            }
          }
        }
      }
    }
  }
  JOINT LeftUpLeg
  {
    OFFSET -5.61296 -2.22332 -10.2353
    CHANNELS 3 Zrotation Xrotation Yrotation
    JOINT LeftLeg
    {
      OFFSET 2.56703 -44.7417 -7.93097
      CHANNELS 3 Zrotation Xrotation Yrotation
      JOINT LeftFoot
      {
        OFFSET 3.16933 -46.5642 -3.96578
        CHANNELS 3 Zrotation Xrotation Yrotation
        JOINT LeftToeBase
        {
          OFFSET 0.346054 -6.02161 12.8035
          CHANNELS 3 Zrotation Xrotation Yrotation
          End Site
          {
            OFFSET 0.134235 -1.35082 5.13018
          }
        }
      }
    }
  }
  JOINT RightUpLeg
  {
    OFFSET -5.7928 -1.72406 10.6446
    CHANNELS 3 Zrotation Xrotation Yrotation
    JOINT RightLeg
    {
      OFFSET -2.57161 -44.7178 -7.85259
      CHANNELS 3 Zrotation Xrotation Yrotation
      JOINT RightFoot
      {
        OFFSET -3.10148 -46.5936 -4.03391
        CHANNELS 3 Zrotation Xrotation Yrotation
        JOINT RightToeBase
        {
          OFFSET -0.0828122 -6.13587 12.8035
          CHANNELS 3 Zrotation Xrotation Yrotation
          End Site
          {
            OFFSET -0.131328 -1.35082 5.13018
          }
        }
      }
    }
  }
}
MOTION
Frames:	8
Frame Time:	0.0333333
-108.599 102.632 98.9058 73.3592 47.2102 10.6164 -70.1915 0 88.8779 110.32 73.0461 -28.9722 -8.17508 22.596 6.34319 -143.268 20.4556 171.216 -152.023 58.8881 174.641 2.43768 -2.63285 -31.3661 -108.774 46.1084 -75.4611 -11.0634 43.7201 6.73883 -4.66753 -0.245383 8.44502 0.960119 -3.55077 39.965 -85.4438 -39.0542 88.4993 -4.37351 -11.7787 11.5887 8.63251 -0.370033 -5.65063 -48.0835 -9.33019 91.2962 1.88955 27.1917 -1.12523 9.39197 8.81889 -1.324 -8.50551 -22.1652 5.06891 -59.2515 0.895067 83.0545 4.57837 66.9984 -7.44328 -1.47496 14.7914 -0.502818 -3.50912 24.0572 22.8067 
-105.894 103.214 96.2081 73.8067 47.7788 10.7673 -70.1915 0 88.8779 110.017 72.3183 -29.6295 -8.01778 21.5214 7.281 -142.605 20.1229 172.502 -152.207 58.5101 175.846 2.36513 -3.23713 -32.0843 -107.961 45.8953 -78.2773 -11.1741 44.0792 6.89686 -4.66037 -0.272967 9.18286 0.889188 -3.26014 40.1482 -85.3379 -39.3838 87.3316 -4.46423 -12.2519 11.3679 7.53082 -0.351884 -6.19575 -50.9594 -8.82891 92.0145 2.21921 26.9878 -2.91573 9.46794 8.40987 -1.33488 -9.14097 -23.6956 4.67127 -54.5449 1.18513 82.8486 7.5769 72.6163 -8.28077 -3.23134 11.3349 0.0791565 -2.20144 21.5973 18.8104 
-103.254 103.76 93.3798 73.6125 48.3879 11.8195 -70.1915 0 88.8779 108.589 71.8618 -27.4696 -7.09563 20.9617 6.88893 -142.333 19.9512 173.236 -152.16 58.2553 176.133 2.40898 -2.92999 -31.812 -106.87 46.6173 -82.7584 -12.3377 44.8268 8.50378 -4.75914 -0.259876 8.6796 0.90114 -3.29489 40.2691 -84.9384 -39.7649 86.6243 -4.80811 -12.2917 10.9841 7.51418 -0.384249 -6.74607 -53.5632 -8.05066 92.7865 2.83277 26.5223 -5.08283 9.46786 7.80634 -1.32899 -9.90072 -25.5174 4.31528 -49.8535 1.72197 82.2259 10.0143 75.4528 -9.59004 -3.85504 8.53951 0.318928 -0.868775 14.7323 13.2299 
-100.574 104.198 90.5836 72.9978 49.62 13.3073 -70.1915 0 88.8779 106.296 71.2472 -25.0563 -6.54788 19.8827 7.31815 -141.638 19.7493 173.902 -151.998 57.949 176.238 2.3757 -2.92602 -31.2843 -106.017 47.6894 -86.2165 -11.8753 44.7941 7.99513 -6.13705 -0.392526 9.63617 0.876079 -3.2053 40.1994 -85.9575 -39.8692 84.7559 -5.26034 -14.1759 9.91269 7.56436 -0.292574 -5.19131 -56.0311 -7.27467 93.5475 3.45613 25.9574 -7.66763 9.56711 7.05509 -1.3396 -10.6591 -27.2677 3.92408 -45.8632 1.80896 80.872 10.0916 75.1764 -8.65866 -4.5321 7.58227 0.480796 -0.669157 3.85687 7.91278 
-97.9572 104.352 87.9779 72.3956 50.665 14.5992 -70.1915 0 88.8779 105.406 70.6023 -24.3986 -6.45403 18.8355 8.06519 -141.587 19.5626 174.383 -152.002 57.6882 176.278 2.39868 -2.6807 -30.92 -103.508 48.4901 -90.5338 -10.983 43.3655 5.9722 -5.50499 -0.331729 9.26221 0.852911 -3.11943 40.166 -86.7997 -40.1824 82.6989 -5.03517 -14.5581 10.0629 7.26726 -0.292619 -5.40844 -57.8045 -6.32509 94.4283 3.84442 26.4653 -9.71929 9.67548 5.5999 -1.34241 -11.1643 -28.4084 3.67149 -42.335 1.86588 79.8068 8.44082 72.8076 -6.38864 -5.80826 5.58745 0.759774 -1.44394 -6.32515 3.48914 
-95.3484 104.461 85.3614 71.5584 52.0646 15.857 -70.1915 0 88.8779 104.137 70.0175 -23.5752 -6.23682 17.8804 8.82041 -141.983 19.5447 174.726 -152.395 57.659 176.298 2.40074 -2.6717 -30.9254 -100.406 48.7501 -95.2665 -9.59869 41.1014 2.94066 -4.58419 -0.278456 9.46329 0.864146 -3.13864 40.4425 -87.1332 -40.2231 80.9375 -4.94065 -14.0256 10.3077 6.94665 -0.252629 -4.9418 -59.7633 -5.77291 94.8573 4.22075 26.4803 -11.6056 9.52393 4.7193 -1.30791 -11.8062 -29.8869 3.47024 -39.815 1.33356 78.7538 6.26448 67.9174 -2.71479 -5.80916 3.44033 0.803954 -1.79849 -10.3727 -2.38072 
-92.7242 104.341 82.7604 71.1255 52.8127 16.4119 -70.1915 0 88.8779 103.953 69.7473 -23.5006 -6.07264 17.605 8.88961 -142.288 19.3967 174.326 -151.938 57.4855 175.942 2.38587 -2.6273 -30.5782 -97.7409 48.9826 -99.5731 -7.63247 40.6738 -0.613055 -5.69121 -0.367771 9.76703 0.869747 -3.13409 40.7444 -88.8178 -40.0836 78.747 -5.10964 -14.2989 9.87172 7.38432 -0.324866 -5.86589 -61.5073 -5.19191 95.5719 4.43809 27.115 -12.745 9.27267 3.42912 -1.25707 -12.3622 -30.9313 2.90162 -38.3234 0.908053 78.1627 4.14753 60.5815 -0.0792668 -6.03585 2.40321 0.857556 -2.40346 -13.3496 -3.37677 
-89.9867 104.123 80.1764 69.9628 53.8643 17.5471 -70.1915 0 88.8779 102.494 69.4627 -22.3762 -5.91109 17.1852 9.03993 -142.593 19.4299 173.549 -151.277 57.5213 175.497 2.35467 -2.60039 -30.0395 -94.5688 49.1144 -103.949 -5.95969 38.8655 -4.06247 -5.88983 -0.439656 10.9523 0.897796 -3.19897 41.2099 -91.671 -39.3737 76.2571 -5.61775 -15.1436 8.65901 6.6335 -0.262656 -5.37152 -62.8191 -4.66795 96.0064 4.67874 27.9673 -13.9507 8.91242 2.00463 -1.19598 -12.7629 -31.7847 2.71672 -37.9225 0.195116 77.0556 2.52501 50.515 1.4558 -6.05911 1.50243 0.877487 -2.67764 -14.5853 -3.11814 
